# xmcd CD database file
#
# Track frame offsets:
#	150
#	7206
#	26786
#	53265
#	75693
#	96569
#	130272
#	135891
#	148594
#	168223
#	182511
#	210195
#	237369
#
# Disc length: 3436 seconds
#
# Revision: 2
# Processed by: cddbd v1.5.2PL0 Copyright (c) Steve Scherf et al.
# Submitted via: CDex 1.51
#
DISCID=a30d6a0d
DTITLE=Beirach Huebner Mraz - Round About Monteverdi
DYEAR=2003
DGENRE=Jazz
TTITLE0=Lamento d' Arianna
TTITLE1=Responsorium #5
TTITLE2=Eja mater fons amoris
TTITLE3=Chant
TTITLE4=Ben Mio, rimanti in pace
TTITLE5=Orfeos lament
TTITLE6=Fantasy on Orfeos lament
TTITLE7=Fantasy on Fili mi, Absalon
TTITLE8=Dialog Orfeo Messanger
TTITLE9=Around Dialog Orfeo Messanger
TTITLE10=Sancta mater, istud agas
TTITLE11=Siciliana
TTITLE12=Fantasy on Lamento d' Arianna
EXTD=YEAR: 2003
EXTT0=
EXTT1=
EXTT2=
EXTT3=
EXTT4=
EXTT5=
EXTT6=
EXTT7=
EXTT8=
EXTT9=
EXTT10=
EXTT11=
EXTT12=
PLAYORDER=
